<?xml version="1.0" encoding="UTF-8"?>
<!-- Generator: Adobe Illustrator 26.0.3, SVG Export Plug-In . SVG Version: 6.00 Build 0)  -->
<svg version="1.1" id="Selected_Items" xmlns="http://www.w3.org/2000/svg" xmlns:xlink="http://www.w3.org/1999/xlink" x="0px" y="0px" viewBox="0 0 3000 2000" style="enable-background:new 0 0 3000 2000;" xml:space="preserve">
<style type="text/css">
	.st0{fill-rule:evenodd;clip-rule:evenodd;fill:#050000;}
	.st1{fill-rule:evenodd;clip-rule:evenodd;fill:#3399FF;}
	.st2{fill:#050000;}
</style>
<symbol id="C" viewBox="0 -36.75 30.85 36.75">
	<path class="st0" d="M15.65,0c5.83,0,10.1-1.93,12.8-5.8c1.5-2.17,2.3-4.33,2.4-6.5h-7.4c-0.47,1.67-1.07,2.92-1.8,3.75   c-1.3,1.53-3.23,2.3-5.8,2.3c-2.63,0-4.7-1.08-6.2-3.25c-1.53-2.17-2.3-5.22-2.3-9.15c0-3.97,0.8-6.93,2.4-8.9   c1.6-1.97,3.63-2.95,6.1-2.95c2.53,0,4.47,0.85,5.8,2.55c0.73,0.9,1.33,2.27,1.8,4.1h7.4c-0.63-3.83-2.25-6.93-4.85-9.3   c-2.57-2.4-5.87-3.6-9.9-3.6c-5,0-8.93,1.62-11.8,4.85C1.43-28.63,0-24.17,0-18.5C0-12.37,1.62-7.65,4.85-4.35   C7.68-1.45,11.28,0,15.65,0z"/>
</symbol>
<symbol id="CONTELLA_x5F_V4" viewBox="0 -70.05 174.7 70.05">
	
		<use xlink:href="#nstella" width="120" height="35.6" id="XMLID_00000108295453604310446800000014789956194990135953_" x="0" y="-35.6" transform="matrix(1 0 0 1 54.7002 -20.9502)" style="overflow:visible;"/>
	
		<use xlink:href="#O-étoile" width="56.5" height="70.05" y="-70.05" transform="matrix(1 0 0 1 27.25 0)" style="overflow:visible;"/>
	
		<use xlink:href="#C" width="30.85" height="36.75" id="XMLID_00000018939650166098754840000012987379955089747595_" x="0" y="-36.75" transform="matrix(1 0 0 1 0 -20)" style="overflow:visible;"/>
</symbol>
<symbol id="O-étoile" viewBox="0 -70.05 56.5 70.05">
	
		<use xlink:href="#cercle" width="29.8" height="29.8" y="-29.8" transform="matrix(1 0 0 1 0 -28.2002)" style="overflow:visible;"/>
	
		<use xlink:href="#etoile_haut" width="41.6" height="26.74" x="0" y="-26.74" transform="matrix(1 0 0 1 14.8999 0)" style="overflow:visible;"/>
	
		<use xlink:href="#étoile_base" width="12.05" height="12.6" y="-12.6" transform="matrix(1 0 0 1 21.8501 -57.4502)" style="overflow:visible;"/>
</symbol>
<symbol id="cercle" viewBox="0 -29.8 29.8 29.8">
	<path class="st1" d="M23.2-14.9c0,2.3-0.82,4.25-2.45,5.85C19.12-7.42,17.17-6.6,14.9-6.6c-2.3,0-4.25-0.82-5.85-2.45   C7.42-10.65,6.6-12.6,6.6-14.9c0-2.27,0.82-4.22,2.45-5.85c1.6-1.63,3.55-2.45,5.85-2.45c2.27,0,4.22,0.82,5.85,2.45   S23.2-17.17,23.2-14.9z M29.8-14.9c0-4.1-1.47-7.6-4.4-10.5c-2.9-2.93-6.4-4.4-10.5-4.4s-7.62,1.47-10.55,4.4   C1.45-22.5,0-19,0-14.9S1.45-7.28,4.35-4.35C7.28-1.45,10.8,0,14.9,0s7.6-1.45,10.5-4.35C28.33-7.28,29.8-10.8,29.8-14.9z"/>
</symbol>
<symbol id="etoile_haut" viewBox="0 -26.74 41.6 26.74">
	<path class="st1" d="M35.5-1.9c0-0.53-0.18-1-0.55-1.4c-0.23-0.2-0.47-0.35-0.7-0.45c-0.27-0.07-0.5-0.12-0.7-0.15   c-0.23,0.03-0.45,0.08-0.65,0.15L32.8-3.7c-0.23,0.07-0.43,0.2-0.6,0.4c-0.37,0.33-0.55,0.73-0.55,1.2c-0.03,0.03-0.03,0.1,0,0.2   c-0.03,0.5,0.15,0.93,0.55,1.3c0.17,0.17,0.35,0.28,0.55,0.35C32.98-0.08,33.25,0,33.55,0c0.53,0,1-0.2,1.4-0.6   C35.32-0.97,35.5-1.4,35.5-1.9z M31.52-5.12C31.58-5,31.67-4.91,31.8-4.85c0.12,0.06,0.25,0.07,0.38,0.02   c0.13-0.05,0.22-0.15,0.27-0.27c0.06-0.12,0.07-0.25,0.02-0.38l-4.2-10.9c-0.05-0.13-0.15-0.22-0.27-0.27   c-0.12-0.06-0.25-0.07-0.38-0.02c-0.13,0.05-0.22,0.15-0.28,0.27c-0.06,0.12-0.07,0.25-0.02,0.38L31.52-5.12z M7.35-11.55   c0.87-0.83,1.32-1.87,1.35-3.1c0-0.07,0-0.15,0-0.25c-0.03-0.07-0.05-0.15-0.05-0.25c-0.13-0.97-0.57-1.82-1.3-2.55   c-0.83-0.87-1.83-1.3-3-1.3c-0.6,0-1.15,0.1-1.65,0.3c-0.57,0.23-1.05,0.57-1.45,1C0.38-16.83-0.03-15.82,0-14.65   c-0.03,1.23,0.38,2.27,1.25,3.1c0.87,0.83,1.9,1.25,3.1,1.25C5.52-10.3,6.52-10.72,7.35-11.55z M27.05-17.85   c0.03,0,0.08-0.02,0.15-0.05c0.5-0.13,0.95-0.42,1.35-0.85c0.67-0.67,1.02-1.48,1.05-2.45c-0.03-0.03-0.03-0.07,0-0.1   c-0.03-0.93-0.38-1.73-1.05-2.4c-0.33-0.3-0.68-0.55-1.05-0.75c-0.43-0.17-0.9-0.25-1.4-0.25c-0.97,0-1.78,0.33-2.45,1   c-0.7,0.7-1.05,1.53-1.05,2.5c0,0.3,0.03,0.58,0.1,0.85l0.05,0.05c0.13,0.57,0.43,1.08,0.9,1.55c0.67,0.67,1.48,1,2.45,1   C26.43-17.72,26.75-17.75,27.05-17.85z M1.82-20.58c0.02,0.13,0.09,0.23,0.2,0.3c0.12,0.07,0.26,0.09,0.4,0.05   c0.13-0.02,0.23-0.09,0.3-0.2c0.07-0.13,0.09-0.26,0.05-0.4l-1.35-5.55c-0.02-0.13-0.09-0.23-0.2-0.3   c-0.12-0.07-0.26-0.09-0.4-0.05c-0.13,0.02-0.23,0.09-0.3,0.2c-0.07,0.12-0.09,0.26-0.05,0.4L1.82-20.58z M21.2-19.17   c0.13-0.04,0.23-0.13,0.3-0.25c0.06-0.12,0.07-0.25,0.02-0.38c-0.04-0.13-0.13-0.23-0.25-0.3c-0.12-0.06-0.25-0.07-0.38-0.02   l-10.8,3.3c-0.13,0.04-0.23,0.13-0.3,0.25c-0.06,0.12-0.07,0.25-0.02,0.38c0.04,0.13,0.13,0.23,0.25,0.3   c0.12,0.06,0.24,0.07,0.38,0.02L21.2-19.17z M41.15-20.45c0.3-0.3,0.45-0.68,0.45-1.15c0-0.43-0.15-0.82-0.45-1.15   c-0.2-0.17-0.4-0.28-0.6-0.35c-0.2-0.07-0.38-0.1-0.55-0.1c-0.2,0-0.38,0.03-0.55,0.1c-0.03,0-0.07,0-0.1,0   c-0.17,0.1-0.33,0.22-0.5,0.35c-0.27,0.3-0.42,0.63-0.45,1v0.05c0,0.03,0,0.07,0,0.1c0,0.47,0.15,0.85,0.45,1.15   c0.13,0.13,0.28,0.23,0.45,0.3C39.5-20.05,39.73-20,40-20C40.43-20,40.82-20.15,41.15-20.45z M30.82-21.52   c-0.09,0.1-0.13,0.22-0.12,0.35c0.01,0.14,0.07,0.26,0.18,0.35c0.1,0.09,0.22,0.13,0.35,0.12l5.75-0.4   c0.14-0.01,0.26-0.07,0.35-0.17c0.09-0.1,0.13-0.22,0.12-0.35c-0.01-0.14-0.07-0.26-0.17-0.35c-0.1-0.09-0.22-0.13-0.35-0.12   l-5.75,0.4C31.04-21.69,30.92-21.63,30.82-21.52z"/>
</symbol>
<symbol id="nstella" viewBox="0 -35.6 120 35.6">
	<path class="st0" d="M111.85-16.45c0,1.07-0.35,1.8-1.05,2.2c-0.73,0.4-1.8,0.6-3.2,0.6c-1.57,0-2.68-0.4-3.35-1.2   c-0.43-0.57-0.73-1.37-0.9-2.4h-6.8c0.13,2.23,0.77,4.08,1.9,5.55c1.8,2.23,4.9,3.35,9.3,3.35c2.83,0,5.37-0.53,7.6-1.6   c2.2-1.07,3.3-3.17,3.3-6.3v-12c0-0.83,0.02-1.83,0.05-3c0.03-0.93,0.15-1.55,0.35-1.85c0.2-0.33,0.52-0.6,0.95-0.8v-0.95h-7.3   c-0.23,0.53-0.38,1.03-0.45,1.5c-0.07,0.47-0.13,1-0.2,1.6c-0.93-1.03-2-1.9-3.2-2.6c-1.43-0.83-3.05-1.25-4.85-1.25   c-2.33,0-4.25,0.67-5.75,2c-1.53,1.33-2.3,3.23-2.3,5.7c0,3.2,1.22,5.52,3.65,6.95c1.33,0.8,3.3,1.35,5.9,1.65l2.3,0.3   c1.23,0.17,2.12,0.37,2.65,0.6C111.38-17.97,111.85-17.32,111.85-16.45z M111.85-22.2c-0.43-0.27-0.87-0.48-1.3-0.65   c-0.4-0.17-0.98-0.32-1.75-0.45l-1.45-0.3c-1.4-0.23-2.42-0.53-3.05-0.9c-1-0.63-1.5-1.6-1.5-2.9c0-1.17,0.32-2,0.95-2.5   c0.63-0.53,1.38-0.8,2.25-0.8c1.43,0,2.77,0.43,4,1.3c1.2,0.87,1.82,2.43,1.85,4.7V-22.2z M63.8-15.4c-0.9-0.93-1.47-2.18-1.7-3.75   h10.95c-0.1,1.7-0.67,2.98-1.7,3.85c-1,0.87-2.25,1.3-3.75,1.3C65.97-14,64.7-14.47,63.8-15.4z M57-9.3v-4.65   c0.44,0.76,0.96,1.44,1.55,2.05c2.3,2.37,5.3,3.55,9,3.55c2.17,0,4.13-0.4,5.9-1.2c1.77-0.8,3.22-2.05,4.35-3.75   c0.81-1.2,1.39-2.54,1.75-4.02V0h6.85v-34.85h-6.85v6.92c-0.33-1.27-1.09-2.56-2.3-3.88c-2.27-2.53-5.42-3.8-9.45-3.8   c-3.37,0-6.33,1.05-8.9,3.15c-0.75,0.62-1.38,1.35-1.9,2.2v-4.6l-3.2-0.4c-3.23-0.1-5.43,0.47-6.6,1.7c-0.8,0.77-1.2,1.97-1.2,3.6   V-14h-1.95c0.33-0.9,0.54-1.91,0.65-3.05h-6.8c-0.1,0.87-0.37,1.55-0.8,2.05c-0.77,0.9-2.1,1.35-4,1.35c-1.53,0-2.63-0.23-3.3-0.7   c-0.67-0.43-1-0.95-1-1.55c0-0.77,0.35-1.32,1.05-1.65c0.7-0.37,3.13-0.97,7.3-1.8c2.8-0.6,4.85-1.53,6.15-2.8   c1.3-1.3,1.95-2.92,1.95-4.85c0-2.53-0.95-4.6-2.85-6.2c-1.93-1.6-4.92-2.4-8.95-2.4c-4.1,0-7.13,0.87-9.1,2.6   c-0.39,0.34-0.74,0.7-1.05,1.08v-2.92h-7v15.7c0,1.37-0.17,2.42-0.5,3.15c-0.67,1.33-1.9,2-3.7,2c-2.23,0-3.77-0.98-4.6-2.95   c-0.43-1-0.65-2.3-0.65-3.9v-14H0V-8.9h6.65v-3.9c0.87,1.33,1.68,2.28,2.45,2.85c1.37,1.07,3.1,1.6,5.2,1.6c2.63,0,4.8-0.7,6.5-2.1   c0.9-0.76,1.56-1.79,1.97-3.1c0.47,0.97,1.17,1.87,2.08,2.7c1.93,1.67,4.65,2.5,8.15,2.5c3.33,0,6.03-0.65,8.1-1.95   c0.48-0.3,0.91-0.65,1.3-1.05v2.05H46v7.2h6.85v-7.2H57z M52.85-14v-13.6c0-1.03,0.13-1.68,0.4-1.95c0.27-0.27,1.07-0.4,2.4-0.4   c0.23,0,0.47,0.02,0.7,0.05c0.12,0.02,0.26,0.05,0.4,0.08c-1.1,1.98-1.65,4.54-1.65,7.67c0,3.29,0.62,6.01,1.88,8.15H52.85z    M30.25-24.2c-3.03,0.7-5.17,1.58-6.4,2.65c-0.2,0.17-0.38,0.36-0.55,0.55v-5.35h4.95c0.13-1.2,0.45-2.07,0.95-2.6   c0.87-0.9,2.47-1.35,4.8-1.35c1.37,0,2.45,0.2,3.25,0.6c0.8,0.4,1.2,1,1.2,1.8c0,0.73-0.32,1.3-0.95,1.7   C36.87-25.77,34.45-25.1,30.25-24.2z M68-30.3c1.43,0,2.62,0.42,3.55,1.25c0.47,0.5,0.9,1.15,1.3,1.95h6.7v3.4H61.9   c0.1-2.67,0.95-4.53,2.55-5.6C65.42-29.97,66.6-30.3,68-30.3z M95.2,0v-34.85h-6.85V0H95.2z"/>
</symbol>
<symbol id="étoile_base" viewBox="0 -12.6 12.05 12.6">
	<path class="st1" d="M11.1-11.7c-0.3-0.3-0.62-0.52-0.95-0.65C9.78-12.52,9.37-12.6,8.9-12.6c-0.07,0-0.13,0-0.2,0   c-0.8,0.03-1.47,0.33-2,0.9c-0.63,0.63-0.95,1.38-0.95,2.25c0,0.27,0.03,0.52,0.1,0.75v0.05c0.13,0.5,0.37,0.93,0.7,1.3   c0.03,0,0.08,0.02,0.15,0.05c0.53,0.6,1.2,0.92,2,0.95c0.07,0,0.13,0,0.2,0c0.27,0,0.53-0.03,0.8-0.1c0.07,0,0.12,0,0.15,0   c0.5-0.17,0.92-0.45,1.25-0.85c0.6-0.6,0.92-1.32,0.95-2.15V-9.5c-0.03,0-0.03-0.02,0-0.05C12.02-10.38,11.7-11.1,11.1-11.7z    M0.15-0.85C0.05-0.75,0-0.63,0-0.5c0,0.17,0.07,0.28,0.2,0.35C0.27-0.05,0.38,0,0.55,0C0.68,0,0.8-0.07,0.9-0.2l5.05-5.65   c0.07-0.07,0.1-0.18,0.1-0.35C6.05-6.33,6-6.45,5.9-6.55c-0.1-0.07-0.22-0.1-0.35-0.1C5.38-6.65,5.27-6.6,5.2-6.5L0.15-0.85z"/>
</symbol>
<use xlink:href="#CONTELLA_x5F_V4" width="174.7" height="70.05" id="XMLID_1_" x="0" y="-70.05" transform="matrix(15.8673 0 0 -15.8686 113.9964 396.1939)" style="overflow:visible;"/>
<g>
	<path class="st2" d="M1219.21,1541.56c-2.84-7.31-5.45-14.35-7.84-21.1c-2.39-6.75-4.67-13.33-6.84-19.73h-72.75   c-2.48,6.43-4.92,13.03-7.3,19.78c-2.38,6.75-4.9,13.77-7.55,21.04h-15.26c5.65-15.5,11-29.95,16.03-43.34   c5.03-13.39,9.97-26.05,14.8-38s9.64-23.43,14.41-34.44c4.77-11.01,9.78-22.06,15.04-33.14h12.88   c5.25,11.03,10.24,22.06,14.95,33.09c4.71,11.04,9.5,22.53,14.35,34.47c4.85,11.94,9.77,24.61,14.75,38.02   c4.98,13.41,10.47,27.85,16.45,43.34H1219.21z M1167.97,1409.41c-5.39,12.37-10.64,24.92-15.75,37.66   c-5.11,12.74-10.39,26.47-15.86,41.21h63.56c-5.5-14.76-10.86-28.51-16.06-41.26C1178.65,1434.25,1173.36,1421.72,1167.97,1409.41z   "/>
	<path class="st2" d="M1347.72,1471.08h14.61v66.4c-2.72,1.15-8.06,2.62-16.01,4.41c-7.95,1.79-17.73,2.69-29.33,2.69   c-9.74,0-18.77-1.72-27.08-5.16c-8.31-3.44-15.51-8.41-21.6-14.93c-6.09-6.52-10.85-14.61-14.29-24.28   c-3.44-9.67-5.16-20.74-5.16-33.2c0-12.46,1.86-23.53,5.59-33.2c3.72-9.67,8.77-17.76,15.15-24.28   c6.37-6.52,13.79-11.5,22.24-14.93c8.45-3.44,17.48-5.16,27.08-5.16c11.03,0,20.12,1.18,27.29,3.55   c7.16,2.36,12.39,4.62,15.69,6.77l-4.94,12.46c-4.01-2.86-9.46-5.19-16.33-6.98c-6.88-1.79-14.33-2.69-22.35-2.69   c-7.45,0-14.47,1.36-21.06,4.08c-6.59,2.72-12.32,6.81-17.19,12.25c-4.87,5.45-8.7,12.18-11.5,20.2   c-2.79,8.03-4.19,17.34-4.19,27.94c0,9.88,1.14,18.8,3.44,26.75c2.29,7.95,5.77,14.76,10.42,20.41c4.65,5.66,10.42,9.99,17.3,13   c6.88,3.01,14.83,4.51,23.85,4.51c7.31,0,13.43-0.39,18.37-1.18c4.94-0.79,8.27-1.54,9.99-2.26V1471.08z"/>
	<path class="st2" d="M1396.28,1541.56v-148.92h85.95v12.68h-71.34v51.79h63.61v12.46h-63.61v59.31h76.93v12.68H1396.28z"/>
	<path class="st2" d="M1616.97,1541.56c-2.76-4.98-6.23-10.86-10.41-17.63c-4.17-6.77-8.81-13.96-13.91-21.56   c-5.1-7.6-10.43-15.46-15.98-23.59c-5.55-8.12-11.07-16.02-16.57-23.69c-5.5-7.67-10.88-14.87-16.15-21.58   c-5.26-6.71-9.94-12.51-14.02-17.39v125.44h-14.4v-148.92h11.6c7.31,8.16,15.15,17.59,23.5,28.28   c8.35,10.69,16.54,21.59,24.57,32.69c8.03,11.1,15.52,21.95,22.48,32.54c6.96,10.6,12.66,19.83,17.12,27.69v-121.2h14.4v148.92   H1616.97z"/>
	<path class="st2" d="M1729.78,1544.79c-9.6,0-18.52-1.72-26.75-5.16c-8.24-3.44-15.4-8.45-21.49-15.04   c-6.09-6.59-10.89-14.72-14.4-24.39c-3.51-9.67-5.26-20.74-5.26-33.2c0-12.46,1.9-23.53,5.69-33.2c3.79-9.67,8.84-17.8,15.15-24.39   c6.3-6.59,13.61-11.57,21.92-14.93c8.31-3.36,16.98-5.05,26-5.05c5.59,0,10.67,0.36,15.26,1.08c4.58,0.72,8.59,1.61,12.03,2.69   s6.37,2.15,8.81,3.22c2.43,1.07,4.3,2.04,5.59,2.9l-4.73,12.68c-3.58-2.15-8.13-4.26-13.65-6.34c-5.52-2.08-12.36-3.12-20.52-3.12   c-9.31,0-17.44,1.58-24.39,4.73c-6.95,3.15-12.79,7.59-17.51,13.32c-4.73,5.73-8.27,12.54-10.64,20.41   c-2.36,7.88-3.54,16.62-3.54,26.22c0,9.88,1.18,18.8,3.54,26.75c2.36,7.95,5.84,14.72,10.42,20.31   c4.58,5.59,10.21,9.88,16.87,12.89c6.66,3.01,14.29,4.51,22.89,4.51c9.45,0,17.37-0.89,23.74-2.69c6.37-1.79,11.21-3.62,14.5-5.48   l4.08,12.46c-1,0.72-2.72,1.54-5.16,2.47c-2.44,0.93-5.52,1.9-9.24,2.9c-3.73,1-8.02,1.83-12.89,2.47   C1741.24,1544.46,1735.8,1544.79,1729.78,1544.79z"/>
	<path class="st2" d="M1798.76,1541.56v-148.92h85.95v12.68h-71.34v51.79h63.61v12.46h-63.61v59.31h76.93v12.68H1798.76z"/>
	<path class="st2" d="M2028.9,1544.79c-9.6,0-18.52-1.72-26.75-5.16c-8.24-3.44-15.4-8.45-21.49-15.04   c-6.09-6.59-10.89-14.72-14.4-24.39c-3.51-9.67-5.26-20.74-5.26-33.2c0-12.46,1.9-23.53,5.69-33.2c3.79-9.67,8.84-17.8,15.15-24.39   c6.3-6.59,13.61-11.57,21.92-14.93c8.31-3.36,16.98-5.05,26-5.05c5.59,0,10.67,0.36,15.26,1.08c4.58,0.72,8.59,1.61,12.03,2.69   s6.37,2.15,8.81,3.22c2.43,1.07,4.3,2.04,5.59,2.9l-4.73,12.68c-3.58-2.15-8.13-4.26-13.65-6.34c-5.52-2.08-12.36-3.12-20.52-3.12   c-9.31,0-17.44,1.58-24.39,4.73c-6.95,3.15-12.79,7.59-17.51,13.32c-4.73,5.73-8.27,12.54-10.64,20.41   c-2.36,7.88-3.54,16.62-3.54,26.22c0,9.88,1.18,18.8,3.54,26.75c2.36,7.95,5.84,14.72,10.42,20.31   c4.58,5.59,10.21,9.88,16.87,12.89c6.66,3.01,14.29,4.51,22.89,4.51c9.45,0,17.37-0.89,23.74-2.69c6.37-1.79,11.21-3.62,14.5-5.48   l4.08,12.46c-1,0.72-2.72,1.54-5.16,2.47c-2.44,0.93-5.52,1.9-9.24,2.9c-3.73,1-8.02,1.83-12.89,2.47   C2040.36,1544.46,2034.92,1544.79,2028.9,1544.79z"/>
	<path class="st2" d="M2197.16,1437.34c0,11.17-2.94,19.98-8.81,26.43c-5.88,6.45-13.61,11.1-23.21,13.97   c2.29,2.87,5.26,6.74,8.92,11.6c3.65,4.87,7.41,10.21,11.28,16.01c3.87,5.8,7.66,11.86,11.39,18.16   c3.72,6.31,6.88,12.32,9.46,18.05h-15.69c-3.01-5.73-6.27-11.46-9.78-17.19c-3.51-5.73-7.09-11.28-10.75-16.65   c-3.65-5.37-7.2-10.35-10.64-14.93c-3.44-4.58-6.45-8.6-9.03-12.03c-4.59,0.43-9.17,0.64-13.75,0.64h-24.07v60.17h-14.61v-146.12   c5.16-1.43,11.21-2.47,18.16-3.12c6.95-0.64,13.36-0.97,19.23-0.97c20.49,0,35.92,3.87,46.31,11.6   C2191.96,1410.7,2197.16,1422.16,2197.16,1437.34z M2136.99,1404.04c-5.45,0-10.21,0.18-14.29,0.54   c-4.08,0.36-7.49,0.68-10.21,0.97v63.39h20.2c6.73,0,13.11-0.32,19.12-0.97s11.24-2.08,15.69-4.3c4.44-2.22,7.95-5.41,10.53-9.56   c2.58-4.15,3.87-9.81,3.87-16.98c0-6.59-1.29-12.03-3.87-16.33s-5.95-7.7-10.1-10.21c-4.16-2.5-8.92-4.22-14.29-5.16   C2148.27,1404.5,2142.72,1404.04,2136.99,1404.04z"/>
	<path class="st2" d="M2230.68,1541.56v-148.92h85.95v12.68h-71.34v51.79h63.61v12.46h-63.61v59.31h76.93v12.68H2230.68z    M2303.31,1352.89l-36.75,29.87l-7.09-8.17l33.95-32.66L2303.31,1352.89z"/>
	<path class="st2" d="M2453.94,1541.56c-2.84-7.31-5.45-14.35-7.84-21.1c-2.39-6.75-4.67-13.33-6.84-19.73h-72.75   c-2.48,6.43-4.92,13.03-7.3,19.78c-2.38,6.75-4.9,13.77-7.55,21.04h-15.26c5.65-15.5,11-29.95,16.03-43.34   c5.03-13.39,9.96-26.05,14.8-38s9.64-23.43,14.41-34.44c4.77-11.01,9.78-22.06,15.04-33.14h12.88   c5.25,11.03,10.24,22.06,14.95,33.09c4.71,11.04,9.5,22.53,14.35,34.47c4.85,11.94,9.77,24.61,14.75,38.02   c4.98,13.41,10.47,27.85,16.45,43.34H2453.94z M2402.69,1409.41c-5.39,12.37-10.64,24.92-15.75,37.66   c-5.11,12.74-10.39,26.47-15.86,41.21h63.56c-5.5-14.76-10.85-28.51-16.06-41.26C2413.38,1434.25,2408.08,1421.72,2402.69,1409.41z   "/>
	<path class="st2" d="M2574.71,1392.65v12.68H2527v136.24h-14.61v-136.24h-47.7v-12.68H2574.71z"/>
	<path class="st2" d="M2597.91,1392.65h14.61v148.92h-14.61V1392.65z"/>
	<path class="st2" d="M2650.34,1392.65c4.29,12.75,8.45,24.82,12.48,36.2c4.03,11.38,7.98,22.41,11.87,33.08s7.82,21.13,11.79,31.38   c3.98,10.25,8.3,20.61,12.96,31.06c4.45-10.29,8.69-20.56,12.75-30.81s8.06-20.71,12.03-31.38s7.93-21.72,11.9-33.17   c3.97-11.45,8.1-23.57,12.41-36.37h15.48c-6.57,18.83-12.5,35.33-17.78,49.49c-5.29,14.16-10.17,26.98-14.64,38.46   c-4.47,11.48-8.74,22.05-12.82,31.72c-4.08,9.67-8.34,19.42-12.79,29.25h-13.72c-4.34-9.93-8.6-19.73-12.77-29.39   c-4.17-9.66-8.53-20.22-13.08-31.66c-4.56-11.44-9.46-24.25-14.69-38.43c-5.24-14.18-11.15-30.65-17.72-49.43H2650.34z"/>
	<path class="st2" d="M2785.29,1541.56v-148.92h85.95v12.68h-71.34v51.79h63.61v12.46h-63.61v59.31h76.93v12.68H2785.29z"/>
</g>
</svg>